<svg xmlns="http://www.w3.org/2000/svg" viewBox="0 0 512 512" width="100%" height="100%">
  <!-- Megaphone Cone -->
  <polygon points="120,200 280,120 280,360 120,280" fill="#F5A663" stroke="#374151" stroke-width="22" stroke-linejoin="round"/>
  <!-- Front Bell Trim -->
  <rect x="270" y="100" width="36" height="280" rx="18" fill="#FFD200" stroke="#374151" stroke-width="20" stroke-linejoin="round"/>
  <!-- Back Handle Base -->
  <rect x="74" y="206" width="56" height="68" rx="16" fill="#FFD200" stroke="#374151" stroke-width="18" stroke-linejoin="round"/>
  <!-- Pistol Grip Handle -->
  <path d="M130 274 L150 400 C150 420 120 430 100 420 L86 274 Z" fill="#F5A663" stroke="#374151" stroke-width="20" stroke-linejoin="round"/>
  <!-- Center Accent Ring -->
  <line x1="200" y1="160" x2="200" y2="320" stroke="#374151" stroke-width="16" stroke-linecap="round"/>
  <!-- Broadcast Soundwaves -->
  <path d="M340 180 C360 220 360 260 340 300" fill="none" stroke="#FFD200" stroke-width="20" stroke-linecap="round"/>
  <path d="M380 140 C420 200 420 280 380 340" fill="none" stroke="#F5A663" stroke-width="20" stroke-linecap="round"/>
  <path d="M420 100 C480 180 480 300 420 380" fill="none" stroke="#FFD200" stroke-width="20" stroke-linecap="round"/>
</svg>
